<svg xmlns="http://www.w3.org/2000/svg" viewBox="0 0 512 512"><circle cx="256" cy="256" r="256" fill="#f1543f"/><path d="M507.089 306.078l-138.5-138.5-152.67 150.626-72.507 78.533 115.231 115.231c123.066-1.247 225.326-89.318 248.446-205.89z" fill="#d83e20"/><path fill="#e9eff4" d="M316.276 115.264H143.412v281.472h225.176V167.577z"/><path fill="#cfdbe6" d="M368.588 167.577l-52.312-52.313h-60.85v281.472h113.162z"/><path fill="#b8c9d9" d="M316.276 167.577h52.312l-52.312-52.313z"/><g fill="#386895"><path d="M179.922 206.798l-12.303-12.304 6.096-6.094 6.207 6.21 20.451-20.451 6.096 6.096zM179.922 253.793l-12.303-12.303 6.096-6.094 6.207 6.208 20.451-20.449 6.096 6.094zM179.922 300.787l-12.303-12.302 6.096-6.094 6.207 6.208 20.451-20.449 6.096 6.094zM179.922 347.782l-12.303-12.303 6.096-6.094 6.207 6.209 20.451-20.449 6.096 6.094z"/></g><g fill="#808183"><path d="M227.556 199.111h85.333v4.198h-85.333zM227.556 245.122h85.333v4.198h-85.333zM227.556 291.133h85.333v4.198h-85.333zM227.556 337.127h85.333v4.198h-85.333z"/></g><g fill="#59595b"><path d="M255.431 199.111h57.458v4.198h-57.458zM255.431 245.122h57.458v4.198h-57.458zM255.431 291.133h57.458v4.198h-57.458zM255.431 337.127h57.458v4.198h-57.458z"/></g></svg>