<?xml version="1.0" standalone="no"?>
<!DOCTYPE svg PUBLIC "-//W3C//DTD SVG 20010904//EN"
 "http://www.w3.org/TR/2001/REC-SVG-20010904/DTD/svg10.dtd">
<svg version="1.0" xmlns="http://www.w3.org/2000/svg"
 width="700.000000pt" height="700.000000pt" viewBox="0 0 700.000000 700.000000"
 preserveAspectRatio="xMidYMid meet">
<metadata>
Created by potrace 1.11, written by Peter Selinger 2001-2013
</metadata>
<g transform="translate(0.000000,700.000000) scale(0.100000,-0.100000)"
fill="#000000" stroke="none">
<path d="M3298 6995 c-1 -1 -41 -5 -88 -9 -179 -12 -352 -40 -550 -88 -296
-71 -658 -215 -898 -357 -29 -17 -55 -31 -57 -31 -14 0 -311 -209 -410 -288
-123 -100 -346 -315 -449 -434 -362 -418 -658 -1009 -762 -1523 -35 -176 -43
-219 -50 -280 -3 -27 -7 -61 -10 -75 -25 -149 -25 -695 1 -825 3 -11 7 -42 10
-70 5 -51 6 -56 30 -188 137 -735 560 -1475 1117 -1953 49 -42 94 -81 100 -87
23 -22 201 -152 278 -204 307 -205 688 -375 1044 -467 106 -28 103 -27 221
-50 128 -24 137 -26 195 -32 30 -3 61 -7 67 -9 80 -26 704 -25 828 0 11 2 43
6 70 9 160 17 422 78 625 146 526 175 978 455 1370 849 222 223 369 412 531
681 202 338 362 764 429 1145 5 33 12 71 15 85 8 43 26 181 33 265 14 160 6
597 -13 720 -3 17 -7 48 -10 70 -5 39 -20 126 -30 175 -3 14 -8 39 -11 55 -15
85 -61 256 -104 386 -74 223 -143 376 -291 649 -33 60 -199 310 -241 363 -13
16 -38 47 -56 70 -104 131 -311 345 -443 460 -132 115 -389 298 -509 363 -19
10 -37 21 -40 24 -16 16 -250 132 -373 184 -238 101 -590 202 -807 231 -14 2
-38 6 -55 9 -16 2 -57 7 -90 11 -33 3 -73 8 -90 11 -34 5 -522 14 -527 9z
m-1147 -1927 c69 -39 77 -70 77 -294 -1 -178 -2 -199 -22 -237 -14 -29 -34
-49 -61 -62 -37 -19 -58 -21 -240 -20 -119 1 -211 6 -227 13 -14 6 -39 28 -55
48 l-28 37 -3 203 c-3 186 -1 207 17 249 16 36 29 50 63 65 38 17 66 20 242
20 185 0 201 -1 237 -22z m3180 1 c69 -35 79 -70 78 -294 0 -216 -6 -244 -62
-289 l-39 -31 -1166 0 -1167 0 -38 24 c-66 40 -71 61 -72 281 -1 211 3 240 37
278 50 53 -4 51 1236 52 1144 0 1153 0 1193 -21z m-3211 -1260 c42 -10 83 -51
98 -96 6 -19 10 -112 9 -232 -2 -219 -4 -225 -71 -275 -26 -20 -41 -21 -245
-21 -216 0 -218 0 -254 25 -61 41 -68 73 -67 300 2 196 2 199 28 239 40 62 67
69 282 69 102 0 201 -4 220 -9z m3216 -15 c68 -51 69 -53 69 -294 0 -240 -1
-244 -69 -294 -27 -21 -31 -21 -1199 -21 l-1172 0 -33 23 c-60 43 -66 66 -68
276 -1 105 3 205 8 223 13 47 57 93 98 102 19 5 553 8 1187 7 1147 -1 1152 -1
1179 -22z m-3191 -1266 c75 -39 84 -76 82 -321 -2 -220 -9 -241 -84 -278 -39
-19 -57 -20 -250 -17 -197 3 -210 4 -239 25 -56 40 -65 81 -63 297 2 306 10
313 331 311 155 -1 199 -5 223 -17z m3184 -3 c73 -43 76 -53 79 -280 3 -186 2
-208 -16 -249 -15 -33 -31 -50 -61 -65 -40 -21 -48 -21 -1197 -21 -1155 0
-1156 0 -1194 21 -70 40 -75 57 -74 294 0 179 2 215 17 242 21 40 57 64 105
72 21 4 548 6 1172 6 1116 0 1136 0 1169 -20z"/>
</g>
</svg>
